<?xml version="1.0" encoding="UTF-8" standalone="no"?>
<!-- Created with Inkscape (http://www.inkscape.org/) -->

<svg
   width="500"
   height="500"
   viewBox="0 0 132.29166 132.29167"
   version="1.1"
   id="svg1"
   inkscape:version="1.3.2 (091e20e, 2023-11-25, custom)"
   sodipodi:docname="icon.svg"
   xmlns:inkscape="http://www.inkscape.org/namespaces/inkscape"
   xmlns:sodipodi="http://sodipodi.sourceforge.net/DTD/sodipodi-0.dtd"
   xmlns:xlink="http://www.w3.org/1999/xlink"
   xmlns="http://www.w3.org/2000/svg"
   xmlns:svg="http://www.w3.org/2000/svg">
  <sodipodi:namedview
     id="namedview1"
     pagecolor="#606060"
     bordercolor="#000000"
     borderopacity="0.25"
     inkscape:showpageshadow="2"
     inkscape:pageopacity="0.0"
     inkscape:pagecheckerboard="0"
     inkscape:deskcolor="#d1d1d1"
     inkscape:document-units="px"
     inkscape:zoom="0.45344416"
     inkscape:cx="396.96178"
     inkscape:cy="382.62705"
     inkscape:window-width="1366"
     inkscape:window-height="705"
     inkscape:window-x="1358"
     inkscape:window-y="-8"
     inkscape:window-maximized="1"
     inkscape:current-layer="layer1" />
  <defs
     id="defs1">
    <linearGradient
       inkscape:collect="always"
       xlink:href="#linearGradient4"
       id="linearGradient3"
       x1="211.50806"
       y1="239.19237"
       x2="348.8222"
       y2="146.17311"
       gradientUnits="userSpaceOnUse"
       gradientTransform="matrix(0.26458333,0,0,0.26458333,3.99794,10.604996)" />
    <linearGradient
       id="linearGradient4"
       inkscape:collect="always">
      <stop
         style="stop-color:#ffffff;stop-opacity:1;"
         offset="0"
         id="stop4" />
      <stop
         style="stop-color:#a9a9a9;stop-opacity:1;"
         offset="1"
         id="stop5" />
    </linearGradient>
  </defs>
  <g
     inkscape:label="sourcebr"
     inkscape:groupmode="layer"
     id="layer1">
    <g
       id="g1"
       inkscape:label="logo">
      <path
         style="-inkscape-font-specification:'Helvetica Bold';fill:url(#linearGradient3);stroke-width:9.48568"
         d="m 14.705775,48.768814 v 11.741228 h 13.077922 q 3.504305,0 5.671916,-1.300567 2.203738,-1.336694 2.203738,-4.696491 0,-3.721066 -2.890148,-4.913252 -2.492753,-0.830918 -6.358327,-0.830918 z m 0,20.556181 v 14.197854 h 13.077922 q 3.504305,0 5.455155,-0.939298 3.540432,-1.734089 3.540432,-6.647342 0,-4.154588 -3.432052,-5.708043 -1.914723,-0.867044 -5.382901,-0.903171 z M 29.951308,39.520339 q 9.790378,0.144507 13.872713,5.671916 2.456626,3.395925 2.456626,8.128543 0,4.877125 -2.456626,7.839527 -1.372821,1.661836 -4.046208,3.034656 4.082334,1.481201 6.141565,4.696491 2.095358,3.215291 2.095358,7.803401 0,4.732618 -2.384373,8.489811 -1.517328,2.492753 -3.79332,4.190716 -2.565006,1.95085 -6.069311,2.673387 -3.468178,0.722537 -7.550513,0.722537 H 4.0844792 V 39.520339 Z m 34.254718,9.248475 v 14.306235 h 12.608273 q 3.757193,0 5.63579,-0.867045 3.32367,-1.517328 3.32367,-5.997058 0,-4.840999 -3.21529,-6.502834 -1.806343,-0.939298 -5.419028,-0.939298 z M 79.45156,39.520339 q 5.599662,0.10838 8.598191,1.37282 3.034656,1.26444 5.130014,3.721066 1.734089,2.023104 2.745641,4.479731 1.011552,2.456626 1.011552,5.599662 0,3.79332 -1.914724,7.478259 -1.914723,3.648813 -6.322199,5.166141 3.684939,1.481201 5.202267,4.226842 1.553455,2.709514 1.553455,8.309177 v 3.576558 q 0,3.648813 0.289014,4.94938 0.433523,2.05923 2.023104,3.034655 v 1.336694 H 85.520871 q -0.505776,-1.770216 -0.722537,-2.854021 -0.433522,-2.239866 -0.469649,-4.588111 l -0.07225,-4.949379 q -0.07225,-5.093887 -1.878596,-6.791849 -1.770216,-1.697962 -6.683468,-1.697962 H 64.206026 V 92.771324 H 53.331843 V 39.520339 Z"
         id="text1"
         aria-label="BR" />
      <path
         id="corner"
         d="m 117.00684,11.864299 c -3.10156,-1.271954 -5.96776,-1.420849 -9.4516,-1.376921 l -59.042383,0.323898 c -12.18397,-0.61943 -24.19438,2.364466 -34.575701,8.340796 l 0.0107,0.0123 c -1.8568,1.01206 -3.12037,2.98508 -3.12037,5.24771 0,3.29781 2.67623,5.97208 5.971891,5.97208 1.72024,0 3.26449,-0.73127 4.35519,-1.89381 12.98117,-6.95746 28.84715,-8.29538 43.50086,-2.27747 26.0281,10.68419 38.511253,40.55576 27.82459,66.581891 -2.86623,6.979653 -7.12248,12.974497 -12.30554,17.823217 l 0.0455,0.0641 c -1.77375,1.03476 -2.97145,2.95538 -2.97145,5.15882 0,3.29767 2.67801,5.96988 5.97619,5.96988 2.12055,0 3.98304,-1.11294 5.04264,-2.78789 6.315,-5.93705 11.49213,-13.27619 14.994493,-21.804964 0.24141,-0.5824 24.43189,-59.505054 24.49375,-59.662344 4.13003,-10.05636 -0.69196,-21.56314 -10.74883,-25.691324 z"
         style="fill:#ffffff;stroke-width:0.556411" />
    </g>
  </g>
</svg>
